<svg data-v-423bf9ae="" xmlns="http://www.w3.org/2000/svg" viewBox="0 0 456.20254786358447 60" class="font"><!----><!----><!----><g data-v-423bf9ae="" id="e0e3fecc-9f37-4fff-befc-f8662b90132f" fill="black" transform="matrix(5.063290976245382,0,0,5.063290976245382,-4.253162242348139,-39.64556891137721)"><path d="M3.30 14.88L3.30 17.18L0.84 17.18L0.84 8.43L4.69 8.43Q6.38 8.43 7.11 9.16Q7.84 9.90 7.84 11.59L7.84 11.59Q7.84 13.29 7.13 14.08Q6.41 14.88 4.90 14.88L4.90 14.88L3.30 14.88ZM3.30 13.08L4.61 13.08Q4.97 13.08 5.11 12.95Q5.25 12.82 5.25 12.49L5.25 12.49L5.25 11.05Q5.25 10.71 5.11 10.58Q4.97 10.46 4.61 10.46L4.61 10.46L3.30 10.46L3.30 13.08ZM11.34 15.41Q11.70 15.47 12.01 15.50L12.01 15.50L11.90 17.16Q11.13 17.37 10.50 17.37L10.50 17.37Q9.67 17.37 9.28 17.03Q8.88 16.69 8.88 15.96L8.88 15.96L8.88 8.08L11.34 7.87L11.34 15.41ZM16.27 9.98Q17.88 9.98 18.61 10.54Q19.33 11.09 19.33 12.32L19.33 12.32L19.33 17.18L18.12 17.18L17.50 16.48Q16.44 17.37 15.09 17.37L15.09 17.37Q13.85 17.37 13.28 16.82Q12.71 16.27 12.71 15.06L12.71 15.06Q12.71 14.17 13.05 13.68Q13.40 13.19 14.21 12.98Q15.02 12.77 16.51 12.77L16.51 12.77L16.87 12.77L16.87 11.89Q16.58 11.80 16.00 11.80L16.00 11.80Q14.74 11.80 13.33 12.17L13.33 12.17L13.03 10.44Q14.49 9.98 16.27 9.98L16.27 9.98ZM15.88 15.68Q16.45 15.68 16.66 15.55Q16.87 15.43 16.87 15.08L16.87 15.08L16.87 14.06L15.99 14.06Q15.41 14.06 15.20 14.19Q14.98 14.32 14.98 14.69L14.98 14.69L14.98 15.68L15.88 15.68ZM24.74 10.18L27.15 10.18L25.51 16.55L25.49 16.55Q25.20 17.74 24.77 18.42Q24.33 19.10 23.65 19.39Q22.97 19.68 21.91 19.68L21.91 19.68Q21.07 19.68 20.34 19.47L20.34 19.47L20.45 18.17L21.97 17.99Q22.39 17.93 22.61 17.82Q22.83 17.71 22.95 17.47Q23.07 17.23 23.17 16.76L23.17 16.76L23.23 16.55L21.80 16.55L20.16 10.18L22.57 10.18L23.58 14.39L23.72 14.39L24.74 10.18ZM30.49 13.96L30.49 17.18L28.03 17.18L28.03 8.43L33.53 8.43L33.24 10.46L30.49 10.46L30.49 12.15L32.97 12.15L32.97 13.96L30.49 13.96ZM37.53 15.55Q38.72 15.55 40.01 15.19L40.01 15.19L40.32 16.91Q38.93 17.37 37.27 17.37L37.27 17.37Q35.42 17.37 34.61 16.51Q33.80 15.65 33.80 13.68L33.80 13.68Q33.80 11.72 34.63 10.85Q35.46 9.98 37.32 9.98L37.32 9.98Q38.57 9.98 39.25 10.19Q39.93 10.40 40.21 10.89Q40.50 11.38 40.50 12.29L40.50 12.29Q40.50 13.19 40.14 13.68Q39.77 14.17 38.91 14.38Q38.04 14.59 36.44 14.59L36.44 14.59L36.44 15.47Q36.83 15.55 37.53 15.55L37.53 15.55ZM37.45 11.80Q36.88 11.80 36.66 11.93Q36.44 12.05 36.44 12.40L36.44 12.40L36.44 13.30L37.27 13.30Q37.84 13.30 38.06 13.17Q38.28 13.03 38.28 12.67L38.28 12.67L38.28 11.80L37.45 11.80ZM45.42 15.55Q46.61 15.55 47.89 15.19L47.89 15.19L48.20 16.91Q46.82 17.37 45.15 17.37L45.15 17.37Q43.30 17.37 42.49 16.51Q41.68 15.65 41.68 13.68L41.68 13.68Q41.68 11.72 42.51 10.85Q43.34 9.98 45.21 9.98L45.21 9.98Q46.45 9.98 47.13 10.19Q47.81 10.40 48.10 10.89Q48.38 11.38 48.38 12.29L48.38 12.29Q48.38 13.19 48.02 13.68Q47.66 14.17 46.79 14.38Q45.92 14.59 44.32 14.59L44.32 14.59L44.32 15.47Q44.72 15.55 45.42 15.55L45.42 15.55ZM45.33 11.80Q44.76 11.80 44.54 11.93Q44.32 12.05 44.32 12.40L44.32 12.40L44.32 13.30L45.15 13.30Q45.72 13.30 45.94 13.17Q46.16 13.03 46.16 12.67L46.16 12.67L46.16 11.80L45.33 11.80ZM53.98 8.02L56.45 7.83L56.45 17.18L55.23 17.18L54.77 16.52Q54.42 16.97 53.85 17.18Q53.28 17.39 52.46 17.39L52.46 17.39Q51.41 17.39 50.78 17.02Q50.15 16.65 49.85 15.83Q49.56 15.02 49.56 13.68L49.56 13.68Q49.56 12.33 49.85 11.53Q50.15 10.72 50.78 10.35Q51.41 9.98 52.46 9.98L52.46 9.98Q53.40 9.98 53.98 10.25L53.98 10.25L53.98 8.02ZM53.42 15.51Q53.75 15.51 53.86 15.44Q53.98 15.36 53.98 15.13L53.98 15.13L53.98 11.86L52.78 11.86Q52.44 11.86 52.32 11.94Q52.21 12.01 52.21 12.24L52.21 12.24L52.21 15.51L53.42 15.51ZM61.89 10.46L61.89 17.18L59.43 17.18L59.43 10.46L57.39 10.46L57.39 8.43L63.94 8.43L63.94 10.46L61.89 10.46ZM66.11 10.18L66.81 11.14Q67.75 10.23 68.85 9.97L68.85 9.97L69.01 12.36Q68.64 12.42 68.12 12.62Q67.61 12.82 67.35 13.01L67.35 13.01L67.35 17.18L64.89 17.18L64.89 10.18L66.11 10.18ZM73.11 9.98Q74.72 9.98 75.45 10.54Q76.17 11.09 76.17 12.32L76.17 12.32L76.17 17.18L74.96 17.18L74.34 16.48Q73.28 17.37 71.93 17.37L71.93 17.37Q70.69 17.37 70.12 16.82Q69.55 16.27 69.55 15.06L69.55 15.06Q69.55 14.17 69.89 13.68Q70.24 13.19 71.05 12.98Q71.86 12.77 73.35 12.77L73.35 12.77L73.71 12.77L73.71 11.89Q73.42 11.80 72.84 11.80L72.84 11.80Q71.58 11.80 70.17 12.17L70.17 12.17L69.87 10.44Q71.33 9.98 73.11 9.98L73.11 9.98ZM72.72 15.68Q73.29 15.68 73.50 15.55Q73.71 15.43 73.71 15.08L73.71 15.08L73.71 14.06L72.83 14.06Q72.25 14.06 72.04 14.19Q71.82 14.32 71.82 14.69L71.82 14.69L71.82 15.68L72.72 15.68ZM80.49 17.37Q79.41 17.37 78.74 17.00Q78.08 16.63 77.77 15.82Q77.46 15.01 77.46 13.68L77.46 13.68Q77.46 12.35 77.77 11.54Q78.08 10.72 78.74 10.35Q79.39 9.98 80.49 9.98L80.49 9.98Q81.10 9.98 81.80 10.07Q82.50 10.15 82.85 10.26L82.85 10.26L82.64 12.00Q81.96 11.80 81.12 11.80L81.12 11.80Q80.56 11.80 80.33 12.05Q80.09 12.29 80.09 12.87L80.09 12.87L80.09 15.47Q80.43 15.55 80.99 15.55L80.99 15.55Q81.89 15.55 82.78 15.19L82.78 15.19L83.01 16.91Q81.87 17.37 80.49 17.37L80.49 17.37ZM87.18 14.20L86.55 14.20L86.55 17.18L84.08 17.18L84.08 8.08L86.55 7.87L86.55 12.70L87.15 12.70L88.27 10.18L90.87 10.18L89.21 13.50L90.94 17.18L88.37 17.18L87.18 14.20Z"></path></g><!----><!----></svg>